<svg width="33" height="32" viewBox="0 0 33 32" fill="none" xmlns="http://www.w3.org/2000/svg">
<path d="M30 15.999C30 22.9072 24.7793 28.6025 18.1348 29.4463V20.165H21.7734L22.5117 15.999H18.1348V14.5752C18.1348 12.3604 18.9785 11.5166 21.1934 11.5166C21.8789 11.5166 22.4062 11.5693 22.7227 11.5693V7.87793C22.1426 7.66699 20.666 7.50879 19.8223 7.50879C15.2871 7.50879 13.2305 9.6709 13.2305 14.2588V15.999H10.4355V20.165H13.2305V29.1299C7.32422 27.6533 3 22.3271 3 15.999C3 8.56348 9.01172 2.49902 16.5 2.49902C23.9355 2.49902 30 8.56348 30 15.999Z" fill="#59066B"/>
</svg>
