<svg width="33" height="32" viewBox="0 0 33 32" fill="none" xmlns="http://www.w3.org/2000/svg">
<path d="M11.0812 3C6.90063 3 3.5 6.40378 3.5 10.5854V21.4188C3.5 25.5994 6.90378 29 11.0854 29H21.9188C26.0994 29 29.5 25.5962 29.5 21.4146V10.5812C29.5 6.40063 26.0962 3 21.9146 3H11.0812ZM24.0833 7.33333C24.6813 7.33333 25.1667 7.81867 25.1667 8.41667C25.1667 9.01467 24.6813 9.5 24.0833 9.5C23.4853 9.5 23 9.01467 23 8.41667C23 7.81867 23.4853 7.33333 24.0833 7.33333ZM16.5 9.5C20.0848 9.5 23 12.4153 23 16C23 19.5848 20.0848 22.5 16.5 22.5C12.9153 22.5 10 19.5848 10 16C10 12.4153 12.9153 9.5 16.5 9.5ZM16.5 11.6667C15.3507 11.6667 14.2485 12.1232 13.4359 12.9359C12.6232 13.7485 12.1667 14.8507 12.1667 16C12.1667 17.1493 12.6232 18.2515 13.4359 19.0641C14.2485 19.8768 15.3507 20.3333 16.5 20.3333C17.6493 20.3333 18.7515 19.8768 19.5641 19.0641C20.3768 18.2515 20.8333 17.1493 20.8333 16C20.8333 14.8507 20.3768 13.7485 19.5641 12.9359C18.7515 12.1232 17.6493 11.6667 16.5 11.6667Z" fill="#59066B"/>
</svg>
