<svg width="33" height="32" viewBox="0 0 33 32" fill="none" xmlns="http://www.w3.org/2000/svg">
<path d="M30.5 16C30.5 23.7339 24.2339 30 16.5 30C15.0323 30 13.621 29.8306 12.3226 29.379C12.8871 28.4758 13.7339 26.9516 14.0726 25.7097C14.2419 25.0887 14.9194 22.379 14.9194 22.379C15.371 23.2823 16.7258 24.0161 18.1371 24.0161C22.371 24.0161 25.4194 20.121 25.4194 15.3226C25.4194 10.6935 21.6371 7.19355 16.7823 7.19355C10.7419 7.19355 7.52419 11.2581 7.52419 15.6613C7.52419 17.75 8.59677 20.2903 10.3468 21.1371C10.629 21.25 10.7984 21.1935 10.8548 20.9113C10.8548 20.7419 11.1371 19.7823 11.25 19.3306C11.25 19.2177 11.25 19.0484 11.1371 18.9355C10.5726 18.2581 10.121 16.9597 10.121 15.7177C10.121 12.6694 12.4355 9.67742 16.4435 9.67742C19.8306 9.67742 22.2581 11.9919 22.2581 15.379C22.2581 19.1613 20.3387 21.7581 17.8548 21.7581C16.5 21.7581 15.4839 20.629 15.7661 19.2742C16.1613 17.5806 16.9516 15.7742 16.9516 14.5887C16.9516 13.5161 16.3871 12.6129 15.2016 12.6129C13.7903 12.6129 12.6613 14.0806 12.6613 16C12.6613 17.2419 13.0565 18.0887 13.0565 18.0887C13.0565 18.0887 11.7016 23.9597 11.4194 25.0323C11.1371 26.2742 11.25 27.9677 11.3629 29.0403C6.16935 27.0081 2.5 21.9839 2.5 16C2.5 8.26613 8.76613 2 16.5 2C24.2339 2 30.5 8.26613 30.5 16Z" fill="#59066B"/>
</svg>
