<svg width="33" height="32" viewBox="0 0 33 32" fill="none" xmlns="http://www.w3.org/2000/svg">
<path d="M27.6507 10.274C27.6507 10.5479 27.6507 10.7671 27.6507 11.0411C27.6507 18.6575 21.8973 27.3699 11.3219 27.3699C8.03425 27.3699 5.02055 26.4383 2.5 24.7945C2.93836 24.8493 3.37671 24.9041 3.86986 24.9041C6.55479 24.9041 9.02055 23.9726 10.9932 22.4383C8.4726 22.3836 6.33562 20.7397 5.62329 18.4383C6.00685 18.4931 6.33562 18.5479 6.71918 18.5479C7.21233 18.5479 7.76027 18.4383 8.19863 18.3288C5.56849 17.7808 3.59589 15.4794 3.59589 12.6849V12.6301C4.36301 13.0685 5.29452 13.2877 6.22603 13.3425C4.63699 12.3014 3.65068 10.5479 3.65068 8.57533C3.65068 7.47944 3.92466 6.49314 4.41781 5.67122C7.26712 9.12328 11.5411 11.4246 16.3082 11.6986C16.1986 11.2603 16.1438 10.8219 16.1438 10.3836C16.1438 7.20547 18.7192 4.63013 21.8973 4.63013C23.5411 4.63013 25.0205 5.28766 26.1164 6.43835C27.3767 6.16437 28.637 5.67122 29.7329 5.01369C29.2945 6.38355 28.4178 7.47944 27.2123 8.19177C28.363 8.08218 29.5137 7.75341 30.5 7.31506C29.7329 8.46574 28.7466 9.45204 27.6507 10.274Z" fill="#59066B"/>
</svg>
